<svg width="14" height="14" viewBox="0 0 14 14" fill="none" xmlns="http://www.w3.org/2000/svg">
<path d="M7.00004 0.305176C10.68 0.305176 13.6667 3.29184 13.6667 6.97184C13.6667 10.6518 10.68 13.6385 7.00004 13.6385C3.32004 13.6385 0.333374 10.6518 0.333374 6.97184C0.333374 3.29184 3.32004 0.305176 7.00004 0.305176ZM7.00004 3.63851C5.16004 3.63851 3.66671 5.13184 3.66671 6.97184C3.66671 8.81184 5.16004 10.3052 7.00004 10.3052C7.57575 10.3052 8.14165 10.1561 8.64262 9.87246C9.1436 9.58879 9.56256 9.18021 9.85871 8.68651L8.71537 8.00117C8.53544 8.30092 8.28008 8.54827 7.97475 8.71856C7.66942 8.88884 7.32478 8.97612 6.9752 8.97168C6.62562 8.96724 6.28331 8.87125 5.9824 8.69326C5.68149 8.51528 5.43249 8.26153 5.26023 7.95731C5.08797 7.65309 4.99846 7.30902 5.00063 6.95942C5.0028 6.60982 5.09658 6.2669 5.2726 5.96484C5.44863 5.66278 5.70076 5.41214 6.00386 5.23791C6.30696 5.06368 6.65043 4.97194 7.00004 4.97184C7.72871 4.97184 8.36671 5.36118 8.71537 5.94318L9.85871 5.25651C9.56248 4.76293 9.14348 4.35448 8.64251 4.07094C8.14155 3.78739 7.57569 3.63841 7.00004 3.63851Z" fill="#007BFF"/>
</svg>
