<svg width="19" height="19" viewBox="0 0 19 19" fill="none" xmlns="http://www.w3.org/2000/svg">
<g clip-path="url(#clip0_13_184)">
<path d="M9.5 18.9712C11.8869 18.9712 14.1761 18.023 15.864 16.3352C17.5518 14.6473 18.5 12.3581 18.5 9.97119C18.5 7.58424 17.5518 5.29506 15.864 3.60723C14.1761 1.9194 11.8869 0.971191 9.5 0.971191C7.11305 0.971191 4.82387 1.9194 3.13604 3.60723C1.44821 5.29506 0.5 7.58424 0.5 9.97119C0.5 12.3581 1.44821 14.6473 3.13604 16.3352C4.82387 18.023 7.11305 18.9712 9.5 18.9712ZM13.4727 8.31885L8.97266 12.8188C8.64219 13.1493 8.10781 13.1493 7.78086 12.8188L5.53086 10.5688C5.20039 10.2384 5.20039 9.704 5.53086 9.37705C5.86133 9.0501 6.3957 9.04658 6.72266 9.37705L8.375 11.0294L12.2773 7.12354C12.6078 6.79307 13.1422 6.79307 13.4691 7.12354C13.7961 7.454 13.7996 7.98838 13.4691 8.31533L13.4727 8.31885Z" fill="#007BFF"/>
</g>
<defs>
<clipPath id="clip0_13_184">
<rect width="18" height="18" fill="white" transform="translate(0.5 0.971191)"/>
</clipPath>
</defs>
</svg>
