<svg width="18" height="19" viewBox="0 0 18 19" fill="none" xmlns="http://www.w3.org/2000/svg">
<path d="M0 9.5C0 4.54297 4.00781 0.499998 9 0.499998C13.957 0.499998 18 4.54297 18 9.5C18 14.4922 13.957 18.5 9 18.5C4.00781 18.5 0 14.4922 0 9.5ZM13.043 7.95312C13.4297 7.56641 13.4297 6.96875 13.043 6.58203C12.6563 6.19531 12.0586 6.19531 11.6719 6.58203L7.875 10.3789L6.29297 8.83203C5.90625 8.44531 5.30859 8.44531 4.92188 8.83203C4.53516 9.21875 4.53516 9.81641 4.92188 10.2031L7.17188 12.4531C7.55859 12.8398 8.15625 12.8398 8.54297 12.4531L13.043 7.95312Z" fill="white"/>
</svg>
