<svg width="24" height="23" viewBox="0 0 24 23" fill="none" xmlns="http://www.w3.org/2000/svg">
<path d="M15 15.75V13.5H24V20.25C24 21.4688 22.9219 22.5 21.75 22.5H2.25C1.03125 22.5 0 21.4688 0 20.25V13.5H9V15.75C9 16.1719 9.32813 16.5 9.75 16.5H14.25C14.625 16.5 15 16.1719 15 15.75ZM21.75 4.5C22.9219 4.5 24 5.57812 24 6.75V12H0V6.75C0 5.57812 1.03125 4.5 2.25 4.5H6V2.25C6 1.07812 7.03125 -1.66893e-06 8.25 -1.66893e-06H15.75C16.9219 -1.66893e-06 18 1.07812 18 2.25V4.5H21.75ZM15.75 4.5V2.25H8.25V4.5H15.75Z" fill="#007BFF"/>
</svg>
