<svg width="25" height="25" viewBox="0 0 25 25" fill="none" xmlns="http://www.w3.org/2000/svg">
<path d="M22.5074 0.973345H2.48423C2.22614 0.961252 1.9682 1.00018 1.72518 1.0879C1.48215 1.17563 1.25882 1.31042 1.06795 1.48456C0.877091 1.65871 0.722448 1.86879 0.612878 2.10278C0.503308 2.33676 0.440964 2.59006 0.429413 2.84818V22.9164C0.444532 23.4566 0.665874 23.9705 1.048 24.3526C1.43012 24.7347 1.94403 24.9561 2.48423 24.9712H22.5074C23.0326 24.9478 23.5277 24.7196 23.8866 24.3355C24.2454 23.9513 24.4395 23.4419 24.4273 22.9164V2.84818C24.4316 2.59695 24.3845 2.3475 24.2889 2.11512C24.1934 1.88274 24.0514 1.67232 23.8716 1.49677C23.6919 1.32123 23.4781 1.18425 23.2436 1.09424C23.009 1.00423 22.7585 0.963094 22.5074 0.973345V0.973345ZM7.92874 20.9815H4.43405V10.2875H7.92874V20.9815ZM6.26389 8.66765C6.02002 8.67615 5.77703 8.63413 5.55019 8.54423C5.32334 8.45432 5.11753 8.31848 4.94569 8.14523C4.77386 7.97199 4.6397 7.76508 4.55165 7.53751C4.4636 7.30993 4.42357 7.06661 4.43405 6.82282C4.42327 6.5764 4.46412 6.33044 4.55397 6.10073C4.64382 5.87102 4.78069 5.66263 4.95581 5.48893C5.13093 5.31522 5.34042 5.18004 5.57085 5.09205C5.80128 5.00406 6.04756 4.96521 6.29389 4.97799C6.53775 4.96949 6.78074 5.01151 7.00759 5.10141C7.23444 5.19132 7.44024 5.32716 7.61208 5.5004C7.78392 5.67365 7.91807 5.88056 8.00612 6.10813C8.09417 6.33571 8.13421 6.57903 8.12372 6.82282C8.1345 7.06924 8.09366 7.3152 8.00381 7.54491C7.91396 7.77461 7.77708 7.98301 7.60196 8.15671C7.42684 8.33042 7.21735 8.4656 6.98692 8.55359C6.75649 8.64158 6.51021 8.68043 6.26389 8.66765V8.66765ZM20.4376 20.9815H16.9279V15.1321C16.9279 13.7372 16.433 12.7773 15.1881 12.7773C14.8014 12.7806 14.4251 12.9035 14.111 13.1291C13.7968 13.3546 13.5601 13.6718 13.4332 14.0372C13.3357 14.3111 13.2949 14.6019 13.3133 14.8921V20.9815H9.86357V10.2875H13.3133V11.7874C13.62 11.2239 14.0764 10.7562 14.6323 10.436C15.1881 10.1157 15.8217 9.95531 16.463 9.97254C18.7278 9.97254 20.4376 11.4724 20.4376 14.6671V20.9815Z" fill="#1E2536"/>
</svg>
