<svg width="26" height="25" viewBox="0 0 26 25" fill="none" xmlns="http://www.w3.org/2000/svg">
<path d="M17.3594 7.07812L24.0625 8.0625C24.625 8.15625 25.0938 8.53125 25.2813 9.09375C25.4688 9.60937 25.3281 10.2187 24.9063 10.5937L20.0313 15.4219L21.2031 22.2656C21.2969 22.8281 21.0625 23.3906 20.5938 23.7188C20.125 24.0938 19.5156 24.0938 19 23.8594L13 20.625L6.95313 23.8594C6.48438 24.0938 5.82813 24.0938 5.40625 23.7188C4.9375 23.3906 4.70313 22.8281 4.79688 22.2656L5.92188 15.4219L1.04688 10.5937C0.625 10.2187 0.484375 9.60937 0.671875 9.09375C0.859375 8.53125 1.32813 8.15625 1.89063 8.0625L8.64063 7.07812L11.6406 0.843748C11.875 0.328123 12.3906 -1.66893e-06 13 -1.66893e-06C13.5625 -1.66893e-06 14.0781 0.328123 14.3125 0.843748L17.3594 7.07812Z" fill="#007BFF"/>
</svg>
